<?xml version="1.0" encoding="utf-8"?>
<svg version="1.1" id="Слой_1" xmlns:sketch="http://www.bohemiancoding.com/sketch/ns"
	xmlns="http://www.w3.org/2000/svg" xmlns:xlink="http://www.w3.org/1999/xlink" x="0px" y="0px" viewBox="0 0 50 50" width="50px" height="50px"
	style="enable-background:new 0 0 50 50;" xml:space="preserve">
<style type="text/css">
	.hamburger{fill:#00F6FF;}
</style>
<g id="TabBar-Icons">
	<g id="Hamburger-Round">
		<path class="hamburger" d="M0,8c0-2.2,1.8-4,4-4h42c2.2,0,4,1.8,4,4c0,2.2-1.8,4-4,4H4C1.8,12,0,10.2,0,8L0,8z M0,24
			c0-2.2,1.8-4,4-4h42c2.2,0,4,1.8,4,4c0,2.2-1.8,4-4,4H4C1.8,28,0,26.2,0,24L0,24z M0,40c0-2.2,1.8-4,4-4h42c2.2,0,4,1.8,4,4
			c0,2.2-1.8,4-4,4H4C1.8,44,0,42.2,0,40L0,40z"/>
	</g>
</g>
</svg>
