<?xml version="1.0" encoding="UTF-8"?><!DOCTYPE svg PUBLIC "-//W3C//DTD SVG 1.1//EN" "http://www.w3.org/Graphics/SVG/1.1/DTD/svg11.dtd"><svg xmlns="http://www.w3.org/2000/svg" xmlns:xlink="http://www.w3.org/1999/xlink"><symbol id="icon-close" viewBox="0 0 384 384">
    <style>
        .st0{fill:#00f6ff}
    </style>
    <path class="st0" d="M373.6 322.7L243 192.1 373.6 61.5c14.1-14.1 14.1-36.8 0-50.9s-36.8-14.1-50.9 0L192.1 141.2 61.5 10.6c-14.1-14.1-36.8-14.1-50.9 0s-14.1 36.8 0 50.9l130.6 130.6L10.6 322.7c-14.1 14.1-14.1 36.8 0 50.9s36.8 14.1 50.9 0L192.1 243l130.6 130.6c14.1 14.1 36.8 14.1 50.9 0 14-14.1 14-36.9 0-50.9z"/>
</symbol><symbol id="icon-hamburger" viewBox="0 0 50 50">
    <style>
        .hamburger{fill:#00f6ff}
    </style>
    <g id="TabBar-Icons">
        <path class="hamburger" d="M0 8c0-2.2 1.8-4 4-4h42c2.2 0 4 1.8 4 4s-1.8 4-4 4H4c-2.2 0-4-1.8-4-4zm0 16c0-2.2 1.8-4 4-4h42c2.2 0 4 1.8 4 4s-1.8 4-4 4H4c-2.2 0-4-1.8-4-4zm0 16c0-2.2 1.8-4 4-4h42c2.2 0 4 1.8 4 4s-1.8 4-4 4H4c-2.2 0-4-1.8-4-4z" id="Hamburger-Round"/>
    </g>
</symbol></svg>